<?xml version="1.0" standalone="no"?>
<!DOCTYPE svg PUBLIC "-//W3C//DTD SVG 20010904//EN"
 "http://www.w3.org/TR/2001/REC-SVG-20010904/DTD/svg10.dtd">
<svg version="1.0" xmlns="http://www.w3.org/2000/svg"
 width="200.000000pt" height="200.000000pt" viewBox="0 0 200.000000 200.000000"
 preserveAspectRatio="xMidYMid meet">
<metadata>
Created by potrace 1.11, written by Peter Selinger 2001-2013
</metadata>
<g transform="translate(0.000000,200.000000) scale(0.100000,-0.100000)"
fill="#000000" stroke="none">
<path d="M498 1846 c-9 -9 -14 -30 -13 -55 2 -36 9 -48 61 -97 44 -41 55 -57
44 -61 -8 -3 -30 -21 -48 -40 -19 -18 -38 -33 -42 -33 -5 0 -36 27 -70 59 -73
71 -114 85 -143 50 -18 -23 -18 -23 5 -41 21 -16 43 -17 86 -4 11 4 34 -9 67
-38 42 -37 47 -46 36 -59 -9 -12 -10 -21 -1 -36 6 -12 14 -21 19 -21 5 0 24
-14 42 -31 19 -16 44 -37 57 -46 17 -12 20 -19 11 -29 -9 -11 -7 -20 5 -39 22
-34 20 -42 -6 -19 -13 11 -18 13 -13 4 5 -8 21 -25 37 -38 15 -13 30 -32 33
-43 5 -14 13 -19 26 -16 15 4 17 2 9 -13 -13 -25 -13 -30 4 -30 8 0 16 -10 18
-22 4 -30 62 -57 108 -52 41 6 66 20 125 78 37 35 45 49 45 80 0 40 -24 86
-46 86 -8 0 -14 7 -14 16 0 12 -7 15 -25 12 -26 -5 -32 1 -16 18 6 5 -8 28
-39 62 -49 51 -83 65 -106 42 -11 -11 -26 16 -62 115 -17 46 -20 50 -49 48
-24 -2 -39 6 -74 41 l-44 44 18 28 c23 38 18 88 -10 92 -11 2 -27 -4 -35 -12z
m328 -433 c18 -24 17 -29 -3 -29 -10 -1 -31 -5 -48 -9 l-30 -8 30 30 c37 37
35 37 51 16z m-96 -70 c-1 -14 -27 -43 -39 -43 -16 0 -14 11 7 31 18 19 32 24
32 12z"/>
<path d="M1546 1821 c-18 -19 -21 -58 -7 -80 12 -19 -66 -104 -91 -98 -11 3
-23 -5 -34 -22 -10 -14 -26 -32 -37 -40 -12 -9 -17 -21 -14 -37 3 -19 -1 -24
-24 -29 -16 -4 -29 -11 -29 -16 0 -5 -10 -14 -22 -18 -20 -8 -30 -2 -70 41
l-48 50 25 30 c14 16 25 38 25 48 0 24 -31 41 -62 36 -13 -3 -26 -5 -29 -5 -4
-1 -9 -15 -13 -33 -5 -27 -1 -37 24 -62 65 -65 110 -124 99 -128 -8 -3 -5 -17
10 -48 11 -24 19 -45 18 -47 -2 -2 -18 4 -35 12 -20 10 -40 13 -59 8 -15 -4
-36 -6 -46 -4 -32 5 -111 -99 -86 -114 5 -4 7 -15 4 -24 -7 -22 84 -118 120
-127 40 -10 91 4 124 35 28 26 30 32 26 90 -2 35 -11 74 -20 88 -9 13 -14 27
-11 31 3 3 6 1 6 -5 0 -5 16 -18 35 -29 19 -10 35 -24 35 -30 0 -28 62 -23 72
6 1 5 27 -2 57 -17 29 -15 68 -27 87 -27 25 -1 34 -5 34 -18 0 -29 58 -24 69
5 18 46 -44 77 -73 36 -13 -19 -18 -20 -53 -9 -103 34 -139 75 -93 107 11 8
20 20 20 26 0 7 9 18 20 25 11 7 20 19 20 27 0 8 11 22 25 31 14 9 25 26 25
39 0 14 15 35 43 57 34 29 47 33 69 27 29 -8 42 -7 70 5 14 6 15 12 6 32 -9
18 -19 24 -44 24 -42 0 -64 -9 -64 -25 0 -19 -92 -95 -104 -87 -6 4 -20 7 -31
7 -15 0 -20 7 -20 28 1 15 -3 27 -7 27 -18 0 -5 19 46 72 57 58 71 86 61 117
-8 27 -30 33 -49 12z"/>
<path d="M900 1691 c-15 -30 -12 -52 9 -58 22 -6 21 -8 -53 -90 -21 -24 -34
-43 -28 -43 5 0 25 18 43 40 19 23 47 55 64 73 16 18 30 38 31 45 2 8 5 16 8
19 8 9 -26 32 -46 33 -10 0 -22 -9 -28 -19z"/>
<path d="M373 1379 c-27 -10 -40 -53 -23 -74 14 -17 66 -20 75 -5 3 6 17 8 29
6 29 -5 118 13 131 26 7 7 0 8 -20 4 -16 -4 -51 -9 -76 -12 -42 -5 -47 -3 -52
18 -8 31 -37 47 -64 37z"/>
<path d="M303 1086 c-33 -15 -38 -38 -13 -58 34 -27 53 -20 64 24 8 33 -17 50
-51 34z"/>
<path d="M1425 1074 c-13 -10 -31 -13 -50 -9 -60 11 -127 4 -153 -17 -30 -25
-57 -105 -53 -160 1 -22 58 -78 79 -78 22 -1 69 -42 75 -66 3 -14 5 -15 6 -3
1 12 8 15 25 12 23 -5 25 -2 31 61 4 37 11 68 15 71 9 5 22 -23 16 -33 -2 -4
-6 -31 -10 -59 -6 -50 -5 -53 19 -59 14 -3 25 -10 25 -14 0 -4 11 -7 25 -6 21
1 23 3 10 12 -20 15 -19 25 3 21 24 -4 97 -43 116 -63 16 -15 18 -15 38 2 21
19 21 19 9 -6 -11 -24 -11 -24 9 2 18 24 25 26 42 17 30 -16 78 -29 78 -20 0
3 -20 13 -45 20 -25 7 -47 16 -49 20 -2 3 6 26 16 49 l19 44 55 -7 c30 -3 54
-2 54 2 0 4 -21 9 -46 11 -57 3 -67 8 -59 32 3 10 1 21 -5 25 -5 3 -10 0 -10
-7 0 -9 -2 -10 -8 -1 -4 6 -25 14 -47 18 -22 4 -55 11 -73 17 -27 8 -31 12
-21 24 6 8 7 14 2 14 -5 0 -19 9 -32 21 -20 19 -24 19 -45 6 -13 -9 -31 -32
-40 -52 -14 -29 -20 -34 -32 -24 -7 6 -11 16 -7 22 3 5 5 27 5 49 -1 26 2 38
12 38 21 0 39 28 31 47 -5 10 -7 24 -6 31 2 15 1 15 -24 -4z"/>
<path d="M1653 1083 c-7 -2 -13 -10 -13 -18 0 -7 -18 -24 -40 -39 -32 -21 -71
-66 -57 -66 2 0 23 18 48 41 38 35 45 38 55 25 15 -21 61 -20 72 2 15 26 -3
62 -30 61 -13 0 -29 -3 -35 -6z"/>
<path d="M715 1047 c-10 -8 -25 -13 -32 -10 -7 3 -13 0 -13 -6 0 -20 -2 -25
-20 -61 -35 -71 5 -172 73 -185 18 -3 42 -11 55 -17 19 -10 27 -7 58 23 50 48
66 82 58 124 -3 19 -10 35 -15 35 -5 0 -9 10 -9 23 0 55 -109 107 -155 74z"/>
<path d="M366 1041 c-4 -5 2 -12 12 -15 32 -11 111 -91 109 -111 -2 -19 -43
-51 -93 -74 -12 -5 -23 -13 -25 -18 -2 -4 -21 -16 -41 -25 -24 -11 -36 -22
-32 -31 3 -9 -11 -20 -43 -32 -26 -10 -54 -22 -60 -28 -9 -6 -13 -6 -13 1 0
19 -70 47 -88 35 -9 -5 -17 -14 -19 -19 -10 -36 86 -72 110 -41 7 9 36 25 66
37 43 17 56 18 62 8 5 -7 13 -14 19 -14 5 -1 15 -2 21 -3 7 -1 9 -10 4 -23 -4
-13 -7 -30 -7 -39 1 -16 -86 -69 -112 -69 -13 0 -48 -43 -59 -72 -3 -9 2 -23
12 -32 17 -15 20 -15 40 1 14 11 23 31 24 53 2 30 8 39 51 63 33 20 56 27 72
23 15 -4 34 0 52 12 15 10 36 23 47 28 11 6 21 20 23 32 3 21 33 25 60 8 6 -4
20 -2 31 4 30 16 31 14 31 -50 0 -57 -1 -60 -25 -60 -14 0 -35 -10 -47 -22
l-21 -21 27 -24 c15 -12 38 -23 51 -23 27 0 26 -4 26 178 0 30 4 50 10 47 10
-7 12 11 9 60 -2 34 -31 95 -54 114 -9 8 -16 22 -16 32 0 11 -6 20 -12 21 -37
4 -44 3 -55 -5 -9 -6 -24 2 -49 27 -50 50 -91 78 -98 67z"/>
<path d="M1860 840 c-21 -21 -21 -23 -4 -41 16 -18 18 -18 36 -2 20 18 21 54
1 60 -6 2 -21 -5 -33 -17z"/>
<path d="M965 830 c-11 -4 -28 -16 -37 -26 -20 -23 -32 -80 -18 -89 6 -4 7
-11 4 -17 -4 -6 1 -17 10 -24 11 -8 13 -14 6 -19 -7 -4 -8 -24 -4 -54 l6 -48
-65 -32 c-36 -17 -68 -39 -72 -48 -5 -15 -4 -16 12 -1 10 9 37 25 61 37 38 19
47 20 83 10 38 -12 39 -14 34 -47 -3 -19 -7 -37 -10 -41 -2 -4 -6 -18 -8 -32
-3 -13 -7 -30 -9 -37 -2 -11 21 -33 39 -38 1 0 5 -18 8 -40 4 -21 8 -46 11
-55 3 -11 -3 -19 -18 -23 -29 -8 -60 -50 -52 -71 10 -25 46 -14 72 22 21 31
22 34 7 95 -8 35 -15 66 -15 69 0 3 15 5 33 4 17 -1 44 2 60 6 24 7 27 5 27
-17 0 -13 5 -24 10 -24 6 0 8 11 4 25 -3 14 -2 25 2 25 31 1 33 17 14 85 -25
88 -25 102 0 110 29 9 115 -42 101 -59 -28 -33 24 -80 54 -49 26 26 11 63 -26
63 -9 0 -22 7 -29 15 -7 9 -28 23 -46 31 -25 12 -34 23 -35 43 -4 74 -9 95
-21 102 -10 7 -9 9 3 9 13 0 16 10 15 46 -1 38 -7 51 -34 75 -29 26 -39 29
-95 28 -34 -1 -71 -5 -82 -9z m57 -225 c12 -3 26 -10 32 -16 8 -8 5 -10 -10
-5 -12 4 -33 2 -48 -3 -19 -8 -26 -7 -27 2 0 6 -2 20 -4 29 -3 15 0 16 17 7
10 -6 29 -12 40 -14z m98 2 c0 -7 -12 -14 -27 -15 -27 -1 -27 -1 -9 13 24 18
36 19 36 2z"/>
<path d="M1806 695 c-17 -13 -17 -15 -3 -29 19 -19 27 -19 51 -1 16 12 17 17
6 30 -15 19 -29 19 -54 0z"/>
<path d="M1453 685 c0 -8 4 -15 9 -15 4 0 8 7 8 15 0 8 -4 15 -8 15 -5 0 -9
-7 -9 -15z"/>
<path d="M1457 623 c2 -20 9 -43 14 -50 8 -9 7 -17 -5 -28 -14 -15 -14 -18 0
-41 21 -31 57 -32 72 0 9 19 7 28 -9 45 -11 11 -26 21 -33 21 -17 0 -26 22
-26 61 0 16 -4 29 -9 29 -4 0 -6 -17 -4 -37z"/>
<path d="M748 459 c-34 -19 -10 -73 29 -63 28 8 37 44 15 60 -20 16 -22 16
-44 3z"/>
<path d="M1146 238 c9 -57 39 -100 68 -96 36 5 28 50 -13 70 -36 18 -53 37
-45 49 2 4 0 11 -6 14 -7 4 -8 -8 -4 -37z"/>
</g>
</svg>
